<?xml version="1.0" encoding="UTF-8"?>
<svg width="64px" height="64px" viewBox="0 0 64 64" version="1.1" xmlns="http://www.w3.org/2000/svg" xmlns:xlink="http://www.w3.org/1999/xlink">
    <!-- Generator: Sketch 55.1 (78136) - https://sketchapp.com -->
    <title>jk-logo-64x64</title>
    <desc>Created with Sketch.</desc>
    <g id="jk-logo-64x64" stroke="none" stroke-width="1" fill="none" fill-rule="evenodd">
        <path d="M17.04,55.5766956 C19.3996535,53.387661 21.0753243,50.8737293 22.0670627,48.0348251 C22.4432393,46.9745115 22.6313248,45.9142137 22.6313248,44.8539001 L22.6313248,19.2012793 L25.9656011,18.9447531 L25.9656011,45.1617316 C25.9656011,47.8980248 25.0422723,50.4974644 23.195587,52.9601283 C22.4090358,53.9862382 21.5882991,54.884071 20.7333522,55.6536534 C19.8784053,56.4232359 19.1602606,57.064545 18.5788967,57.5776 L17.04,55.5766956 Z M24.1702216,14.246377 C23.4862641,14.246377 22.9562049,14.0240565 22.5800283,13.5794088 C22.2038516,13.1347612 22.0157661,12.5704092 22.0157661,11.8863359 C22.0157661,11.2022626 22.2209503,10.6464613 22.6313248,10.2189155 C23.0416994,9.7913697 23.5888572,9.5776 24.2728147,9.5776 C24.9567722,9.5776 25.5039301,9.7913697 25.9143046,10.2189155 C26.3246791,10.6464613 26.5298633,11.2364657 26.5298633,11.9889464 C26.5298633,12.741427 26.3075804,13.305779 25.863008,13.6820193 C25.4184356,14.0582596 24.8541791,14.246377 24.1702216,14.246377 Z M38.8923338,19.2012793 L43.2140688,19.2012793 L32.2366054,31.2067059 L44.24,44.8539001 L40.1747478,45.1104263 L28.5817256,31.2067059 L38.8923338,19.2012793 Z" id="jk" fill="#1A1A1A" fill-rule="nonzero"></path>
    </g>
</svg>